<?xml version="1.0" standalone="no"?>
<!DOCTYPE svg PUBLIC "-//W3C//DTD SVG 20010904//EN"
 "http://www.w3.org/TR/2001/REC-SVG-20010904/DTD/svg10.dtd">
<svg version="1.0" xmlns="http://www.w3.org/2000/svg"
 width="1563.000000pt" height="1563.000000pt" viewBox="0 0 1563.000000 1563.000000"
 preserveAspectRatio="xMidYMid meet">

<g transform="translate(0.000000,1563.000000) scale(0.100000,-0.100000)"
fill="#000000" stroke="none">
<path d="M1562 10393 l3 -2288 1962 -3 1963 -2 -7 -63 c-10 -84 -10 -329 0
-454 l9 -103 -1966 0 -1966 0 0 -2285 0 -2285 235 0 235 0 0 2050 0 2050 1793
0 1793 0 13 -37 c97 -278 336 -635 573 -858 168 -157 356 -289 558 -390 344
-173 668 -249 1055 -249 385 0 706 75 1051 246 422 210 772 547 1003 968 51
91 141 291 141 310 0 6 661 10 1795 10 l1795 0 0 -2050 0 -2050 235 0 235 0 0
2285 0 2285 -1966 0 -1965 0 8 108 c10 128 10 374 0 454 l-7 58 1962 2 1963 3
3 2288 2 2287 -235 0 -235 0 0 -2055 0 -2055 -1782 0 -1783 0 -34 88 c-170
441 -490 842 -877 1100 -296 198 -632 326 -989 379 -164 24 -476 24 -640 0
-425 -63 -830 -238 -1154 -499 -113 -92 -296 -280 -383 -394 -131 -172 -264
-411 -334 -596 l-29 -78 -1782 0 -1783 0 0 2055 0 2055 -235 0 -235 0 2 -2287z
m6456 -714 c422 -45 812 -232 1115 -534 361 -360 557 -827 557 -1330 0 -741
-430 -1402 -1115 -1713 -478 -217 -1042 -217 -1520 0 -1118 508 -1468 1895
-721 2861 265 342 649 587 1067 681 199 44 419 57 617 35z"/>
</g>
</svg>
